<?xml version="1.0" encoding="UTF-8"?>
<!DOCTYPE svg PUBLIC "-//W3C//DTD SVG 1.1//EN" "http://www.w3.org/Graphics/SVG/1.1/DTD/svg11.dtd">
<!-- Creator: CorelDRAW -->
<svg xmlns="http://www.w3.org/2000/svg" xml:space="preserve" width="2048px" height="2048px" style="shape-rendering:geometricPrecision; text-rendering:geometricPrecision; image-rendering:optimizeQuality; fill-rule:evenodd; clip-rule:evenodd"
viewBox="0 0 2048 2048"
 xmlns:xlink="http://www.w3.org/1999/xlink">
 <defs>
  <style type="text/css">
   <![CDATA[
    .fil1 {fill:none}
    .fil0 {fill:#EF5350}
    .fil2 {fill:#FFFFFE;fill-rule:nonzero}
   ]]>
  </style>
 </defs>
 <g id="Layer_x0020_1">
  <metadata id="CorelCorpID_0Corel-Layer"/>
  <rect class="fil0" width="2048" height="2048"/>
  <rect class="fil1" x="255.999" y="255.999" width="1536" height="1536"/>
  <path class="fil2" d="M814.603 973.626c0,-56.8666 23.1402,-108.507 60.6024,-145.96 37.3276,-37.317 88.8568,-60.4252 145.828,-60.4252 56.8725,0 108.387,23.1638 145.742,60.5705 37.3311,37.3819 60.4052,88.9666 60.4052,145.814 0,56.8973 -23.0705,108.514 -60.3957,145.918 -37.3512,37.4339 -88.8709,60.6071 -145.752,60.6071 -56.9811,0 -108.562,-23.165 -145.963,-60.5871 -37.3796,-37.3996 -60.4678,-89.0233 -60.4678,-145.938zm105.602 -100.709c-25.715,25.7091 -41.6008,61.3311 -41.6008,100.709 0,39.4359 15.9284,75.1359 41.7166,100.938 25.6713,25.6855 61.2508,41.5855 100.713,41.5855 39.3449,0 74.8607,-15.9083 100.501,-41.6055 25.7362,-25.7918 41.6445,-61.4835 41.6445,-100.918 0,-39.3768 -15.9106,-75.0367 -41.654,-100.814 -25.6358,-25.6713 -61.1481,-41.5689 -100.492,-41.5689 -39.4607,0 -75.0839,15.9378 -100.828,41.674z"/>
  <path class="fil2" d="M1233.14 1405.02c49.4681,65.2654 113.937,80.2583 170.472,64.8591 25.1563,-6.8504 48.8953,-19.5236 69.2729,-36.3567 20.5146,-16.9453 37.5213,-37.9181 49.0689,-61.2473 26.0941,-52.7174 24.1358,-118.703 -29.2465,-178.2l-46.1622 -51.4489 69.1619 -1.67717c79.5272,-1.92756 129.458,-46.2933 150.291,-101.968 9.11103,-24.3496 12.8504,-50.9764 11.2512,-77.3682 -1.59095,-26.2299 -8.46615,-51.9508 -20.5902,-74.6623 -27.6532,-51.7973 -83.9965,-88.5579 -169.029,-79.9938l-95.8135 9.65079 71.1886 -65.0268c65.2808,-59.6304 76.4186,-126.765 56.6552,-182.035 -9.55276,-26.713 -26.0918,-50.9044 -47.1071,-70.4174 -21.0626,-19.5555 -46.5437,-34.35 -73.9205,-42.2209 -56.7957,-16.3288 -122.471,-2.00906 -173.874,63.1028l-62.9611 79.7516 6.08504 -101.378c4.98307,-83.0398 -34.4811,-137.612 -87.7619,-163.272 -21.2433,-10.2307 -44.6941,-16.0606 -68.4733,-17.439 -23.9327,-1.3878 -48.0981,1.70197 -70.5993,9.313 -56.6091,19.148 -102.915,67.9134 -107.576,147.103l-3.96614 67.402 -49.5343 -45.7772c-58.3619,-53.9363 -125.238,-56.9386 -179.055,-31.5236 -24.1536,11.4071 -45.8492,28.4173 -63.2008,49.0855 -17.3728,20.6906 -30.2729,44.7662 -36.8103,70.2627 -14.6114,56.98 2.71418,122.902 73.3713,176.275l92.8264 70.1197 -115.576 -12.8693c-81.9107,-9.12048 -137.215,27.261 -164.927,78.8658 -12.6343,23.5264 -19.8166,50.2359 -21.4288,77.3835 -1.61929,27.2681 2.34921,54.7583 12.0177,79.715 21.2575,54.8634 71.2158,97.9394 151.296,98.6658l74.302 0.673229 -51.5528 53.328c-53.9646,55.8225 -59.3764,120.73 -36.9189,174.324 9.30827,22.213 23.2866,42.6048 40.526,59.7709 17.3162,17.2429 37.7823,31.167 59.9788,40.3607 53.713,22.2496 118.65,16.5721 174.279,-37.6453l54.2504 -52.8745 0 75.7501c0,78.1678 42.0544,127.309 96.1229,148.541 26.4473,10.3854 55.8426,14.4036 84.8623,12.1583 28.878,-2.23347 57.0874,-10.6559 81.3131,-25.1575 50.1107,-29.9941 83.6658,-87.4501 70.4918,-171.777l-19.5473 -125.118 76.5473 100.993zm187.223 126.61c-58.6182,15.9662 -122.848,9.37205 -179.758,-30.7075 -9.74765,71.4426 -49.6063,123.267 -102.207,154.752 -33.0012,19.754 -70.904,31.1859 -109.312,34.1575 -38.2666,2.95984 -77.3493,-2.46378 -112.864,-16.4102 -61.7599,-24.2528 -112.502,-73.4256 -130.166,-148.119 -64.9312,39.1666 -135.057,38.8807 -195.486,13.8484 -30.1193,-12.476 -57.6579,-31.1386 -80.7284,-54.1111 -23.1496,-23.0504 -41.9552,-50.5193 -54.5268,-80.5205 -25.3347,-60.4583 -25.8189,-130.761 13.4303,-195.983 -76.7068,-18.1063 -126.782,-69.8634 -151.055,-132.508 -13.0406,-33.6579 -18.4146,-70.3642 -16.2697,-106.467 2.15197,-36.2256 11.8465,-72.0745 28.9288,-103.883 29.1614,-54.3012 79.1044,-96.7678 148.982,-109.813 -46.6052,-60.1182 -55.7622,-127.299 -40.1764,-188.079 9.02835,-35.2075 26.3858,-67.9099 49.5615,-95.5123 23.1957,-27.6284 52.3524,-50.4414 84.9497,-65.8359 62.0504,-29.3044 136,-32.1402 205.001,8.80276 21.4016,-77.2997 76.767,-126.731 141.882,-148.756 30.2929,-10.2461 62.6682,-14.4154 94.5993,-12.5634 32.087,1.86142 63.8386,9.77835 92.7237,23.6894 57.5386,27.7122 103.671,78.5032 118.929,151.812 60.0827,-44.4638 128.138,-51.6083 189.331,-34.0158 37.1114,10.6701 71.5512,30.6307 99.9213,56.9705 28.4162,26.3847 50.8335,59.2453 63.8575,95.667 21.7323,60.7737 17.9256,130.812 -26.6622,196.765 76.0701,11.5193 129.429,55.5142 159.662,112.141 16.5839,31.0654 25.9618,65.8146 28.0902,100.911 2.11772,34.9323 -2.95394,70.4989 -15.2528,103.369 -23.941,63.9804 -74.5843,117.328 -152.123,136.218 39.7701,69.4465 35.6811,142.265 5.57953,203.077 -15.6567,31.6311 -38.3752,59.7851 -65.5689,82.2473 -27.3284,22.5744 -59.2878,39.6012 -93.2729,48.8575z"/>
 </g>
</svg>
